<svg width="56" height="56" viewBox="0 0 56 56" fill="none" xmlns="http://www.w3.org/2000/svg">
<rect width="56" height="56" rx="28" fill="white"/>
<path d="M28.525 42.525C28.35 42.525 28.2625 42.4375 28.175 42.35L25.1125 37.1H19.25C17.0625 37.1 15.3125 35.35 15.3125 33.1625V22.75C15.3125 20.5625 17.0625 18.8125 19.25 18.8125H36.8375C39.025 18.8125 40.775 20.5625 40.775 22.75V33.075C40.775 35.2625 39.025 37.0125 36.8375 37.0125H32.025L28.9625 42.2625C28.875 42.4375 28.7 42.525 28.525 42.525ZM19.25 19.6875C17.5875 19.6875 16.1875 21.0875 16.1875 22.75V33.075C16.1875 34.7375 17.5875 36.1375 19.25 36.1375H25.375C25.55 36.1375 25.6375 36.225 25.725 36.3125L28.525 41.125L31.325 36.3125C31.4125 36.1375 31.5875 36.1375 31.675 36.1375H36.75C38.4125 36.1375 39.8125 34.7375 39.8125 33.075V22.75C39.8125 21.0875 38.4125 19.6875 36.75 19.6875H19.25Z" fill="#343434"/>
<path d="M23.1875 28.875C23.9124 28.875 24.5 28.2874 24.5 27.5625C24.5 26.8376 23.9124 26.25 23.1875 26.25C22.4626 26.25 21.875 26.8376 21.875 27.5625C21.875 28.2874 22.4626 28.875 23.1875 28.875Z" fill="#343434"/>
<path d="M28.4375 28.875C29.1624 28.875 29.75 28.2874 29.75 27.5625C29.75 26.8376 29.1624 26.25 28.4375 26.25C27.7126 26.25 27.125 26.8376 27.125 27.5625C27.125 28.2874 27.7126 28.875 28.4375 28.875Z" fill="#343434"/>
<path d="M33.6875 28.875C34.4124 28.875 35 28.2874 35 27.5625C35 26.8376 34.4124 26.25 33.6875 26.25C32.9626 26.25 32.375 26.8376 32.375 27.5625C32.375 28.2874 32.9626 28.875 33.6875 28.875Z" fill="#343434"/>
<path d="M41.5625 18.375C42.7706 18.375 43.75 17.3956 43.75 16.1875C43.75 14.9794 42.7706 14 41.5625 14C40.3544 14 39.375 14.9794 39.375 16.1875C39.375 17.3956 40.3544 18.375 41.5625 18.375Z" fill="#FF0000"/>
</svg>
